<?xml version="1.0" encoding="iso-8859-1"?>
<!-- Uploaded to: SVG Repo, www.svgrepo.com, Generator: SVG Repo Mixer Tools -->
<svg fill="#000000" height="800px" width="800px" version="1.1" id="Layer_1" xmlns="http://www.w3.org/2000/svg" xmlns:xlink="http://www.w3.org/1999/xlink" 
	 viewBox="0 0 481.917 481.917" xml:space="preserve">
<g>
	<g>
		<path d="M474.357,418.143H135.082v-19.576c0-1.958-1.506-3.464-3.388-3.464H40.438c-1.882,0-3.388,1.506-3.388,3.464v19.576H7.534
			c-4.141,0-7.529,3.388-7.529,7.529v48.715c0,4.141,3.388,7.529,7.529,7.529h466.824c4.216,0,7.529-3.388,7.529-7.529v-48.715
			C481.887,421.531,478.574,418.143,474.357,418.143z"/>
	</g>
</g>
<g>
	<g>
		<path d="M49.034,49.011v267.978h383.865V49.011H49.034z M181.197,217.221c-6.93,5.81-15.791,8.719-26.583,8.719
			c-10.784,0-21.716-3.812-32.782-11.446l8.928-17.299c9.209,6.514,17.44,9.772,24.692,9.772c4.377,0,7.974-1.069,10.817-3.217
			c2.835-2.138,4.253-5.229,4.253-9.275c0-4.046-1.624-7.252-4.883-9.623c-3.257-2.37-7.767-3.555-13.536-3.555
			c-3.066,0-7.392,0.879-12.972,2.644v-16.04l18.692-22.048H127.27v-18.551h59.712v15.069l-19.952,22.736
			c7.817,1.302,13.859,4.585,18.137,9.839c4.278,5.255,6.423,11.323,6.423,18.202C191.59,203.386,188.126,211.409,181.197,217.221z
			 M274.04,184.504H249.62v25.107h-19.256v-25.107h-24.41v-17.166h24.41v-25.108h19.256v25.108h24.419V184.504z M357.607,224.821
			h-68.781v-16.18l28.605-29.301c5.761-5.859,9.88-10.534,12.342-14.024c2.461-3.481,3.696-6.855,3.696-10.113
			c0-3.257-1.07-5.976-3.208-8.164c-2.138-2.18-4.882-3.274-8.23-3.274c-6.134,0-11.952,4.368-17.44,13.113l-17.44-10.328
			c4.559-7.062,9.557-12.418,15.002-16.039c5.437-3.631,12.367-5.445,20.789-5.445c8.413,0,15.806,2.677,22.181,8.023
			c6.365,5.354,9.556,12.624,9.556,21.832c0,5.023-1.284,9.839-3.838,14.44c-2.561,4.608-7.277,10.493-14.166,17.654l-17.571,18.277
			h38.502V224.821z"/>
	</g>
</g>
<g>
	<g>
		<path d="M460.189,0H21.751C9.773,0,0.03,9.747,0.03,21.725v322.548c0,11.978,9.743,21.724,21.721,21.724h438.438
			c11.978,0,21.724-9.746,21.724-21.724V21.725C481.912,9.747,472.166,0,460.189,0z M447.957,324.518
			c0,4.158-3.372,7.529-7.529,7.529H41.504c-4.158,0-7.529-3.371-7.529-7.529V41.482c0-4.158,3.372-7.529,7.529-7.529h398.923
			c4.158,0,7.529,3.372,7.529,7.529V324.518z"/>
	</g>
</g>
</svg>